<?xml version="1.0" encoding="UTF-8" standalone="no"?>
<!-- Generator: Adobe Illustrator 16.0.0, SVG Export Plug-In . SVG Version: 6.00 Build 0)  -->

<svg
   xmlns:dc="http://purl.org/dc/elements/1.1/"
   xmlns:cc="http://creativecommons.org/ns#"
   xmlns:rdf="http://www.w3.org/1999/02/22-rdf-syntax-ns#"
   xmlns:svg="http://www.w3.org/2000/svg"
   xmlns="http://www.w3.org/2000/svg"
   xmlns:sodipodi="http://sodipodi.sourceforge.net/DTD/sodipodi-0.dtd"
   xmlns:inkscape="http://www.inkscape.org/namespaces/inkscape"
   version="1.1"
   id="Capa_1"
   x="0px"
   y="0px"
   width="85.988px"
   height="85.987px"
   viewBox="0 0 85.988 85.987"
   style="enable-background:new 0 0 85.988 85.987;"
   xml:space="preserve"
   inkscape:version="0.91 r13725"
   sodipodi:docname="group_3.svg"><metadata
     id="metadata3454"><rdf:RDF><cc:Work
         rdf:about=""><dc:format>image/svg+xml</dc:format><dc:type
           rdf:resource="http://purl.org/dc/dcmitype/StillImage" /><dc:title></dc:title></cc:Work></rdf:RDF></metadata><defs
     id="defs3452" /><sodipodi:namedview
     pagecolor="#ffffff"
     bordercolor="#666666"
     borderopacity="1"
     objecttolerance="10"
     gridtolerance="10"
     guidetolerance="10"
     inkscape:pageopacity="0"
     inkscape:pageshadow="2"
     inkscape:window-width="1871"
     inkscape:window-height="1056"
     id="namedview3450"
     showgrid="false"
     inkscape:snap-others="false"
     inkscape:object-nodes="true"
     inkscape:snap-intersection-paths="false"
     inkscape:zoom="10.687662"
     inkscape:cx="42.993999"
     inkscape:cy="42.9935"
     inkscape:window-x="49"
     inkscape:window-y="24"
     inkscape:window-maximized="1"
     inkscape:current-layer="Capa_1" /><path
     sodipodi:nodetypes="ssssssssssssscsccscsscsccsscsccsssc"
     inkscape:connector-curvature="0"
     id="path3418"
     d="m 63.504,22.03 c -3.997,0 -7.239,3.25 -7.239,7.25 0,3.992 3.242,7.236 7.239,7.236 3.998,0 7.25,-3.244 7.25,-7.236 0,-3.996 -3.252,-7.25 -7.25,-7.25 z m -41.021,0 c -4,0 -7.25,3.25 -7.25,7.25 0,3.992 3.25,7.236 7.25,7.236 3.987,0 7.237,-3.244 7.237,-7.236 0,-3.996 -3.249,-7.25 -7.237,-7.25 z M 42.986,7.555 c -5.9,0 -10.71,4.805 -10.71,10.711 0,5.905 4.805,10.716 10.71,10.716 5.906,0 10.717,-4.811 10.717,-10.716 C 53.708,12.359 48.892,7.555 42.986,7.555 Z m 32.097,64.187 -12.645,0 0,-23.115 c 0,-3.179 -0.839,-6.136 -2.195,-8.787 1.035,-0.306 2.123,-0.523 3.262,-0.523 6.38,0 11.578,5.188 11.578,11.579 z m -51.546,-23.115 0,23.115 -12.629,0 0,-20.846 c 0,-6.385 5.191,-11.579 11.581,-11.579 1.139,0 2.216,0.217 3.249,0.523 -1.357,2.651 -2.201,5.608 -2.201,8.787 z m 2.651,29.806 33.598,0 0,-29.806 c 0,-9.264 -7.539,-16.798 -16.801,-16.798 -9.269,0 -16.797,7.534 -16.797,16.798 z"
     style="fill:#010002" /><g
     id="g3420" /><g
     id="g3422" /><g
     id="g3424" /><g
     id="g3426" /><g
     id="g3428" /><g
     id="g3430" /><g
     id="g3432" /><g
     id="g3434" /><g
     id="g3436" /><g
     id="g3438" /><g
     id="g3440" /><g
     id="g3442" /><g
     id="g3444" /><g
     id="g3446" /><g
     id="g3448" /></svg>